<svg version="1.1" id="圖層_1" xmlns="http://www.w3.org/2000/svg" xmlns:xlink="http://www.w3.org/1999/xlink" x="0px" y="0px" viewBox="0 0 100 100" style="transform-origin: 50px 50px 0px;" xml:space="preserve">
  <g style="transform-origin: 50px 50px 0px;">
    <g style="transform-origin: 50px 50px 0px; transform: scale(0.6);">
    <g style="transform-origin: 50px 50px 0px;">
      <g>
        <style type="text/css" class="ld ld-breath" style="transform-origin: 50px 50px 0px; animation-duration: 1s; animation-delay: -1s; animation-direction: normal;">.st0{fill:#D1D1D1;} .st1{fill:#454545;} .st2{fill:#464646;} .st3{fill:#FFFFFF;}</style>
        <g class="ld ld-breath" style="transform-origin: 50px 50px 0px; animation-duration: 1s; animation-delay: -0.941176s; animation-direction: normal;">
          <path class="st0" d="M73.248,49.24c-0.626,0-1.245,0.033-1.856,0.091c3.577-0.591,6.074-3.464,5.94-7.042 c-0.102-2.716-1.959-4.541-4.621-4.541c-0.575,0-1.124,0.075-1.656,0.147c-0.455,0.062-0.884,0.12-1.284,0.128l-0.161,0.001 c-1.69,0-4.149-0.289-4.752-0.505c-1.112-0.406-1.261-0.559-1.449-3.201c-0.031-0.438-0.066-0.91-0.119-1.399 c1.202,0.483,2.511,0.754,3.881,0.761h0.056c6.054,0,10.806-4.71,10.817-10.721c0.006-2.858-1.112-5.547-3.147-7.571 c-2.027-2.016-4.721-3.128-7.598-3.131c-4.805,0-8.887,3.176-10.247,7.535c-0.869-0.485-1.799-0.819-2.775-0.988 c-1.15-0.2-2.33-0.33-3.507-0.386c-0.293-0.014-0.589-0.021-0.885-0.021c-4.829,0-9.962,1.9-14.082,5.213 c-4.482,3.604-7.56,8.688-8.667,14.315l-0.101,0.511c-0.516,2.597-1.101,5.54-0.381,8.435c0.211,0.85,0.526,1.646,0.938,2.39 c-0.279-0.012-0.559-0.022-0.841-0.022C16.137,49.24,7.5,57.876,7.5,68.492c0,10.616,8.637,19.252,19.252,19.252 c9.935,0,18.136-7.566,19.146-17.239c1.117,2.004,3.021,3.548,5.5,3.548c0.353,0,0.708-0.034,1.059-0.102 c0.79-0.153,1.49-0.445,2.102-0.84c2.075,8.392,9.665,14.633,18.688,14.633c10.615,0,19.251-8.636,19.252-19.252 C92.5,57.876,83.864,49.24,73.248,49.24z M56.496,59.023c-0.441-2.665-0.879-5.324-1.316-8.004c-0.525-3.22-2.47-4.776-4.008-5.514 c-1.389-0.666-2.519-1.212-3.59-1.729c-1.307-0.63-2.526-1.218-4.017-1.931c0.071-0.271,0.137-0.565,0.189-0.879 c0.594-3.617,1.994-4.207,5.061-5.502c0.113-0.048,0.227-0.096,0.343-0.145c1.74,6.09,5.116,10.486,9.612,12.469 c3.347,1.476,6.703,1.719,9.253,1.766l0.115,0.002l0.816-0.043c0.476-0.026,0.952-0.051,1.428-0.071 c0.101-0.004,0.197-0.018,0.297-0.026C64.595,50.232,59.405,53.897,56.496,59.023z" fill="#dadada" style="fill: rgb(218, 218, 218);"></path>
        </g>
        <g style="transform-origin: 50px 50px 0px;"><g>
          <g class="ld ld-breath" style="transform-origin: 50px 50px 0px; animation-duration: 1s; animation-delay: -0.882353s; animation-direction: normal;">
            <path class="st1" d="M26.753,59.175c5.137,0,9.316,4.179,9.316,9.316s-4.179,9.316-9.316,9.316s-9.316-4.179-9.316-9.316 C17.436,63.355,21.615,59.175,26.753,59.175 M26.753,52.552c-8.803,0-15.94,7.136-15.94,15.94c0,8.803,7.137,15.94,15.94,15.94 c8.803,0,15.939-7.137,15.939-15.94C42.692,59.688,35.556,52.552,26.753,52.552L26.753,52.552z" fill="#6200ee" style="fill: rgb(98, 0, 238);"></path>
          </g>
        </g>
        </g>
        <g style="transform-origin: 50px 50px 0px;"><g>
          <g class="ld ld-breath" style="transform-origin: 50px 50px 0px; animation-duration: 1s; animation-delay: -0.823529s; animation-direction: normal;">
            <path class="st1" d="M73.249,59.175L73.249,59.175c5.136,0,9.315,4.18,9.316,9.317c0,5.137-4.179,9.316-9.316,9.316 c-5.137,0-9.316-4.179-9.316-9.316S68.111,59.175,73.249,59.175 M73.248,52.551c-8.803,0-15.94,7.137-15.94,15.941 c0,8.803,7.137,15.94,15.94,15.94c8.803,0,15.939-7.136,15.94-15.939C89.188,59.689,82.052,52.552,73.248,52.551L73.248,52.551z" fill="#6200ee" style="fill: rgb(98, 0, 238);"></path>
          </g>
        </g>
        </g>
        <g class="ld ld-breath" style="transform-origin: 50px 50px 0px; animation-duration: 1s; animation-delay: -0.764706s; animation-direction: normal;">
          <path class="st1" d="M67.31,15.568c4.104,0.005,7.433,3.315,7.425,7.383c-0.008,4.166-3.335,7.436-7.545,7.416 c-4.025-0.02-7.317-3.363-7.307-7.419C59.894,18.862,63.213,15.564,67.31,15.568z" fill="#6200ee" style="fill: rgb(98, 0, 238);"></path>
        </g>
        <g class="ld ld-breath" style="transform-origin: 50px 50px 0px; animation-duration: 1s; animation-delay: -0.705882s; animation-direction: normal;">
          <path class="st1" d="M69.831,41.334c-1.492,0.026-4.813-0.232-6.106-0.704c-4.271-1.559-3.252-5.147-3.871-8.376 c-0.02-0.101-0.047-0.203-0.071-0.304c-2.38-2.258-3.874-5.454-3.875-8.976c-0.651-0.449-1.394-0.767-2.195-0.906 c-1.022-0.178-2.062-0.291-3.099-0.341c-8.245-0.395-18.095,6.001-20.226,16.838c-0.972,4.942-2.291,10.107,5.206,13.017 c2.505,0.972,2.922,1.17,8.806,2.371c0.463,0.095,0.669,0.449,0.707,0.945c0.609,7.883,2.327,6.144,3.018,11.953 c0.238,2.005,1.77,4.224,3.704,3.85c1.968-0.381,2.782-2.806,2.455-4.777c-0.796-4.79-1.59-9.579-2.371-14.371 c-0.226-1.386-0.88-2.441-2.172-3.061c-3.608-1.731-5.474-2.647-9.088-4.366c-1.459-0.694-0.43-2.086-0.165-3.696 c1.251-7.62,6.462-6.941,11.078-10.057c0.124,1.552,0.413,2.613,0.413,2.613c1.084,4.738,3.548,9.752,8.13,11.772 c2.539,1.119,5.233,1.434,7.978,1.484c0.721-0.037,1.44-0.08,2.161-0.11c2.252-0.094,3.855-1.669,3.778-3.72 C73.943,40.284,72.104,41.293,69.831,41.334z" fill="#6200ee" style="fill: rgb(98, 0, 238);"></path>
        </g>
        <metadata xmlns:d="https://loading.io/stock/" class="ld ld-breath" style="transform-origin: 50px 50px 0px; animation-duration: 1s; animation-delay: -0.647059s; animation-direction: normal;">
<d:name class="ld ld-breath" style="transform-origin: 50px 50px 0px; animation-duration: 1s; animation-delay: -0.588235s; animation-direction: normal;">bicycle</d:name>
    <d:tags class="ld ld-breath" style="transform-origin: 50px 50px 0px; animation-duration: 1s; animation-delay: -0.529412s; animation-direction: normal;">travel,race,bike,commute,bicycle,map</d:tags>
    <d:license class="ld ld-breath" style="transform-origin: 50px 50px 0px; animation-duration: 1s; animation-delay: -0.470588s; animation-direction: normal;">cc0</d:license>
    <d:slug class="ld ld-breath" style="transform-origin: 50px 50px 0px; animation-duration: 1s; animation-delay: -0.411765s; animation-direction: normal;">ubebm0</d:slug>
</metadata></g></g></g></g><style type="text/css" class="ld ld-breath" style="transform-origin: 50px 50px 0px; animation-duration: 1s; animation-delay: -0.352941s; animation-direction: normal;">@keyframes ld-breath {
  0% {
    -webkit-transform: scale(0.86);
    transform: scale(0.86);
  }
  50% {
    -webkit-transform: scale(1.06);
    transform: scale(1.06);
  }
  100% {
    -webkit-transform: scale(0.86);
    transform: scale(0.86);
  }
}
@-webkit-keyframes ld-breath {
  0% {
    -webkit-transform: scale(0.86);
    transform: scale(0.86);
  }
  50% {
    -webkit-transform: scale(1.06);
    transform: scale(1.06);
  }
  100% {
    -webkit-transform: scale(0.86);
    transform: scale(0.86);
  }
}
.ld.ld-breath {
  -webkit-animation: ld-breath 1s infinite;
  animation: ld-breath 1s infinite;
}
</style></svg>